<?xml version="1.0"?>
<svg height="300" version="1.1" width="300" xmlns:xlink="http://www.w3.org/1999/xlink" xmlns="http://www.w3.org/2000/svg"><defs><radialGradient id="rainbow"><stop offset="0%" stop-color="#ff0000" /><stop offset="8%" stop-color="#ff7f00" /><stop offset="16%" stop-color="#ffff00" /><stop offset="25%" stop-color="#7fff00" /><stop offset="33%" stop-color="#00ff00" /><stop offset="41%" stop-color="#00ff7f" /><stop offset="50%" stop-color="#00ffff" /><stop offset="58%" stop-color="#007fff" /><stop offset="66%" stop-color="#0000ff" /><stop offset="75%" stop-color="#7f00ff" /><stop offset="83%" stop-color="#ff00ff" /><stop offset="91%" stop-color="#ff007f" /><stop offset="100%" stop-color="#ff0000" /></radialGradient></defs><polyline fill="none" points="150.00,150.00 150.46,150.06 150.90,150.23 151.30,150.52 151.64,150.90 151.89,151.37 152.04,151.92 152.08,152.52 152.00,153.15 151.79,153.80 151.44,154.44 150.96,155.04 150.35,155.59 149.62,156.05 148.78,156.42 147.84,156.66 146.82,156.76 145.75,156.70 144.65,156.47 143.54,156.07 142.45,155.49 141.41,154.72 140.45,153.78 139.60,152.67 138.89,151.40 138.33,150.00 137.96,148.48 137.80,146.87 137.85,145.19 138.14,143.48 138.67,141.77 139.45,140.10 140.48,138.49 141.75,137.00 143.24,135.64 144.95,134.47 146.85,133.50 148.92,132.77 151.11,132.30 153.41,132.12 155.77,132.25 158.15,132.69 160.50,133.45 162.79,134.54 164.97,135.94 166.99,137.66 168.81,139.66 170.39,141.93 171.70,144.43 172.69,147.13 173.33,150.00 173.61,152.98 173.50,156.03 173.00,159.10 172.08,162.14 170.76,165.09 169.05,167.89 166.96,170.50 164.50,172.85 161.72,174.91 158.65,176.63 155.33,177.96 151.82,178.88 148.15,179.34 144.40,179.34 140.63,178.85 136.89,177.87 133.25,176.40 129.77,174.45 126.53,172.04 123.57,169.20 120.97,165.96 118.76,162.37 117.00,158.47 115.74,154.33 115.00,150.00 114.81,145.55 115.20,141.06 116.16,136.60 117.69,132.24 119.80,128.06 122.44,124.12 125.61,120.52 129.25,117.30 133.31,114.53 137.74,112.27 142.48,110.58 147.45,109.48 152.58,109.01 157.78,109.20 162.98,110.06 168.08,111.58 173.00,113.75 177.66,116.56 181.98,119.97 185.87,123.94 189.26,128.42 192.09,133.34 194.30,138.63 195.84,144.21 196.67,150.00 196.76,155.91 196.10,161.84 194.69,167.69 192.53,173.38 189.64,178.80 186.06,183.86 181.83,188.47 177.01,192.55 171.66,196.03 165.86,198.82 159.71,200.88 153.28,202.16 146.69,202.63 140.03,202.26 133.42,201.04 126.95,198.98 120.74,196.10 114.90,192.43 109.52,188.02 104.70,182.92 100.52,177.20 97.06,170.96 94.40,164.27 92.59,157.25 91.67,150.00 91.66,142.63 92.60,135.26 94.46,128.01 97.25,121.00 100.92,114.34 105.44,108.15 110.73,102.54 116.74,97.60 123.37,93.42 130.53,90.08 138.11,87.66 145.99,86.19 154.04,85.73 162.15,86.28 170.19,87.86 178.02,90.46 185.51,94.05 192.54,98.58 198.99,104.00 204.74,110.23 209.71,117.18 213.78,124.75 216.90,132.82 218.99,141.29 220.00,150.00 219.91,158.83 218.70,167.64 216.39,176.28 212.98,184.62 208.52,192.52 203.07,199.84 196.70,206.45 189.51,212.26 181.59,217.14 173.07,221.01 164.08,223.80 154.75,225.45 145.22,225.92 135.66,225.18 126.21,223.23 117.02,220.09 108.24,215.80 100.03,210.41 92.51,203.99 85.82,196.63 80.07,188.44 75.37,179.55 71.80,170.08 69.44,160.18 68.33,150.00 68.51,139.71 70.00,129.46 72.77,119.42 76.80,109.76 82.04,100.63 88.43,92.18 95.86,84.56 104.24,77.89 113.44,72.31 123.32,67.89 133.74,64.74 144.52,62.91 155.51,62.44 166.53,63.36 177.40,65.67 187.95,69.35 198.01,74.35 207.41,80.60 216.00,88.03 223.62,96.51 230.15,105.94 235.48,116.16 239.50,127.02 242.13,138.36 243.33,150.00 243.06,161.76 241.31,173.44 238.08,184.87 233.42,195.86 227.40,206.23 220.08,215.81 211.58,224.43 202.01,231.96 191.53,238.25 180.28,243.20 168.45,246.72 156.21,248.74 143.76,249.20 131.29,248.10 119.00,245.42 107.08,241.21 95.74,235.50 85.15,228.39 75.50,219.96 66.94,210.35 59.62,199.68 53.68,188.14 49.20,175.88 46.29,163.10 45.00,150.00 45.36,136.78 47.39,123.66 51.07,110.83 56.35,98.52 63.17,86.91 71.42,76.21 80.99,66.58 91.74,58.19 103.50,51.19 116.11,45.70 129.36,41.82 143.06,39.62 156.97,39.15 170.90,40.44 184.61,43.48 197.89,48.24 210.51,54.65 222.28,62.62 233.01,72.05 242.50,82.80 250.60,94.69 257.17,107.57 262.10,121.22 265.28,135.44 266.67,150.00 266.21,164.68 263.91,179.25 259.78,193.46 253.87,207.10 246.27,219.95 237.09,231.78 226.45,242.41 214.51,251.66 201.46,259.36 187.49,265.39 172.82,269.64 157.68,272.03 142.29,272.49 126.91,271.02 111.78,267.61 97.15,262.32 83.24,255.20 70.28,246.37 58.49,235.93 48.06,224.06 39.18,210.93 31.98,196.73 26.60,181.68 23.14,166.03 21.67,150.00 22.22,133.86 24.79,117.85 29.38,102.24 35.90,87.28 44.29,73.20 54.41,60.23 66.12,48.60 79.24,38.49 93.57,30.08 108.90,23.51 124.99,18.90 141.59,16.33 158.44,15.87 175.27,17.52 191.82,21.29 207.82,27.12 223.02,34.95 237.16,44.65 250.01,56.08 261.37,69.08 271.05,83.45 278.87,98.98 284.70,115.42 288.43,132.51" stroke-linecap="round" stroke-linejoin="round" stroke-width="10" stroke="url(#rainbow)" /></svg>